<?xml version="1.0" encoding="UTF-8" standalone="no"?>
<svg
   xmlns:dc="http://purl.org/dc/elements/1.1/"
   xmlns:cc="http://creativecommons.org/ns#"
   xmlns:rdf="http://www.w3.org/1999/02/22-rdf-syntax-ns#"
   xmlns:svg="http://www.w3.org/2000/svg"
   xmlns="http://www.w3.org/2000/svg"
   xmlns:sodipodi="http://sodipodi.sourceforge.net/DTD/sodipodi-0.dtd"
   xmlns:inkscape="http://www.inkscape.org/namespaces/inkscape"
   id="Layer_1"
   data-name="Layer 1"
   viewBox="0 0 293.58999 293.48001"
   version="1.1"
   sodipodi:docname="Logo_small.svg"
   width="293.59"
   height="293.48001"
   inkscape:version="0.92.4 (5da689c313, 2019-01-14)">
  <metadata
     id="metadata3927">
    <rdf:RDF>
      <cc:Work
         rdf:about="">
        <dc:format>image/svg+xml</dc:format>
        <dc:type
           rdf:resource="http://purl.org/dc/dcmitype/StillImage" />
        <dc:title>Logo 3.0</dc:title>
      </cc:Work>
    </rdf:RDF>
  </metadata>
  <sodipodi:namedview
     pagecolor="#ffffff"
     bordercolor="#666666"
     borderopacity="1"
     objecttolerance="10"
     gridtolerance="10"
     guidetolerance="10"
     inkscape:pageopacity="0"
     inkscape:pageshadow="2"
     inkscape:window-width="2560"
     inkscape:window-height="1032"
     id="namedview3925"
     showgrid="false"
     inkscape:zoom="0.421"
     inkscape:cx="534"
     inkscape:cy="146.73999"
     inkscape:window-x="0"
     inkscape:window-y="0"
     inkscape:window-maximized="1"
     inkscape:current-layer="Layer_1" />
  <defs
     id="defs3842">
    <style
       id="style3840">.cls-1{fill:#69c;}.cls-2{fill:#bdbdbd;}</style>
  </defs>
  <title
     id="title3844">Logo 3.0</title>
  <polygon
     class="cls-1"
     points="704.98,1146.74 506.57,1002.27 711.22,853.26 678.38,853.26 473.73,1002.27 672.13,1146.74 "
     id="polygon3874"
     style="fill:#6699cc"
     transform="translate(-466,-853.26)" />
  <path
     class="cls-1"
     d="m 246,147.54 a 13.21,13.21 0 1 1 0,-6.12 h 47.51 v -16.68 a 16.53,16.53 0 0 1 -30.51,-3 h -94 l -25,18.2 h 39.08 a 15.54,15.54 0 1 1 0,9.17 h -51.56 l 29.26,21.3 h 92.37 a 15.53,15.53 0 1 1 0,9.18 H 173.37 L 204,201.81 c 0,-0.23 0,-0.46 0,-0.68 a 16.86,16.86 0 0 1 33,-4.59 h 56.53 v -49 z"
     id="path3876"
     inkscape:connector-curvature="0"
     style="fill:#6699cc" />
  <path
     class="cls-1"
     d="m 274.34,174.95 a 6.36,6.36 0 1 0 -6.35,6.36 6.37,6.37 0 0 0 6.35,-6.36 z"
     id="path3878"
     inkscape:connector-curvature="0"
     style="fill:#6699cc" />
  <path
     class="cls-1"
     d="m 204.25,144.48 a 6.36,6.36 0 1 0 -6.36,6.35 6.36,6.36 0 0 0 6.36,-6.35 z"
     id="path3880"
     inkscape:connector-curvature="0"
     style="fill:#6699cc" />
  <path
     class="cls-1"
     d="M 293.54,216.6 V 205.74 H 237 a 16.93,16.93 0 0 1 -11.69,11.65 l 7.35,5.35 h 34.81 a 15.5,15.5 0 0 1 26.06,-6.11 z"
     id="path3882"
     inkscape:connector-curvature="0"
     style="fill:#6699cc" />
  <path
     class="cls-1"
     d="m 228.49,201.13 a 7.7,7.7 0 1 0 -7.7,7.69 7.7,7.7 0 0 0 7.7,-7.69 z"
     id="path3884"
     inkscape:connector-curvature="0"
     style="fill:#6699cc" />
  <path
     class="cls-1"
     d="m 286.23,117.1 a 7.39,7.39 0 1 0 -7.38,7.39 7.39,7.39 0 0 0 7.38,-7.39 z"
     id="path3886"
     inkscape:connector-curvature="0"
     style="fill:#6699cc" />
  <path
     class="cls-1"
     d="m 276,227.3 a 6.36,6.36 0 1 0 6.35,-6.36 6.36,6.36 0 0 0 -6.35,6.36 z"
     id="path3888"
     inkscape:connector-curvature="0"
     style="fill:#6699cc" />
  <path
     class="cls-1"
     d="m 282.31,242.83 a 15.55,15.55 0 0 1 -14.83,-10.94 h -22.21 l 48.27,35.14 v -29 a 15.47,15.47 0 0 1 -11.23,4.8 z"
     id="path3890"
     inkscape:connector-curvature="0"
     style="fill:#6699cc" />
  <path
     class="cls-1"
     d="m 285.1,60.97 a 11.17,11.17 0 0 1 -21.92,-3.06 11.08,11.08 0 0 1 1.87,-6.17 l -22.24,16.19 a 16.85,16.85 0 0 1 22.66,11 h 28.07 v -18 z"
     id="path3892"
     inkscape:connector-curvature="0"
     style="fill:#6699cc" />
  <path
     class="cls-1"
     d="m 226.11,144.48 a 7.09,7.09 0 1 0 7.09,-7.09 7.1,7.1 0 0 0 -7.09,7.09 z"
     id="path3894"
     inkscape:connector-curvature="0"
     style="fill:#6699cc" />
  <path
     class="cls-1"
     d="m 274.35,46.74 a 11.2,11.2 0 0 1 10.75,8.12 h 8.44 V 30.99 l -22.21,16.17 a 11.18,11.18 0 0 1 3.02,-0.42 z"
     id="path3896"
     inkscape:connector-curvature="0"
     style="fill:#6699cc" />
  <path
     class="cls-1"
     d="m 274.35,62.97 a 5.06,5.06 0 1 0 -5.06,-5.06 5.07,5.07 0 0 0 5.06,5.06 z"
     id="path3898"
     inkscape:connector-curvature="0"
     style="fill:#6699cc" />
  <path
     class="cls-1"
     d="M 249.26,100.38 A 16.85,16.85 0 0 1 236.45,72.56 l -54.87,40 H 263 a 16.54,16.54 0 0 1 30.59,-3 v -21.4 h -28.12 a 16.87,16.87 0 0 1 -16.21,12.22 z"
     id="path3900"
     inkscape:connector-curvature="0"
     style="fill:#6699cc" />
  <path
     class="cls-1"
     d="m 257,83.51 a 7.7,7.7 0 1 0 -7.69,7.7 7.7,7.7 0 0 0 7.69,-7.7 z"
     id="path3902"
     inkscape:connector-curvature="0"
     style="fill:#6699cc" />
  <path
     class="cls-2"
     d="m 29.82,100.33 a 14.12,14.12 0 1 1 0,-9.17 h 34 L 122.45,48.47 H 37.8 a 15.8,15.8 0 1 1 0,-7.65 h 95.14 L 189,0 H 0 v 14.44 h 109 a 16.56,16.56 0 1 1 0,9.17 H 0 V 67 h 58 a 10.74,10.74 0 1 1 0,6.11 H 0 v 64.48 l 51.16,-37.26 z"
     id="path3904"
     inkscape:connector-curvature="0"
     style="fill:#bdbdbd" />
  <path
     class="cls-2"
     d="M 73,70.05 A 4.63,4.63 0 1 0 68.38,74.68 4.63,4.63 0 0 0 73,70.05 Z"
     id="path3906"
     inkscape:connector-curvature="0"
     style="fill:#bdbdbd" />
  <path
     class="cls-2"
     d="m 14.35,44.64 a 8.15,8.15 0 1 0 8.15,-8.15 8.15,8.15 0 0 0 -8.15,8.15 z"
     id="path3908"
     inkscape:connector-curvature="0"
     style="fill:#bdbdbd" />
  <path
     class="cls-2"
     d="m 11.54,95.74 a 4.94,4.94 0 1 0 4.94,-4.94 5,5 0 0 0 -4.94,4.94 z"
     id="path3910"
     inkscape:connector-curvature="0"
     style="fill:#bdbdbd" />
  <path
     class="cls-2"
     d="m 132.35,19.02 a 7.39,7.39 0 1 0 -7.38,7.39 7.39,7.39 0 0 0 7.38,-7.39 z"
     id="path3912"
     inkscape:connector-curvature="0"
     style="fill:#bdbdbd" />
  <circle
     class="cls-2"
     cx="87.659973"
     cy="248.94997"
     r="8.1499996"
     id="circle3914"
     style="fill:#bdbdbd" />
  <circle
     class="cls-2"
     cx="25.839996"
     cy="197.84999"
     r="4.9400001"
     id="circle3916"
     style="fill:#bdbdbd" />
  <path
     class="cls-2"
     d="M 163.09,279.16 H 39.59 a 16.57,16.57 0 1 1 0,-9.17 h 110.9 L 95.11,229.66 H 23 a 10.74,10.74 0 1 1 0,-6.12 H 86.69 L 0.03,160.44 v 32.82 h 12.46 a 14.12,14.12 0 1 1 0,9.17 H 0.05 v 42.7 h 72.31 a 15.79,15.79 0 1 1 0,7.64 H 0.05 v 40.71 h 182.72 z"
     id="path3918"
     inkscape:connector-curvature="0"
     style="fill:#bdbdbd" />
  <path
     class="cls-2"
     d="m 16.31,274.57 a 7.39,7.39 0 1 0 7.39,-7.38 7.4,7.4 0 0 0 -7.39,7.38 z"
     id="path3920"
     inkscape:connector-curvature="0"
     style="fill:#bdbdbd" />
  <circle
     class="cls-2"
     cx="12.730011"
     cy="226.59999"
     r="4.6199999"
     id="circle3922"
     style="fill:#bdbdbd" />
</svg>
